<?xml version="1.0" standalone="no"?>
<!DOCTYPE svg PUBLIC "-//W3C//DTD SVG 20010904//EN"
 "http://www.w3.org/TR/2001/REC-SVG-20010904/DTD/svg10.dtd">
<svg version="1.0" xmlns="http://www.w3.org/2000/svg"
 width="81.000000pt" height="81.000000pt" viewBox="0 0 81.000000 81.000000"
 preserveAspectRatio="xMidYMid meet">
<metadata>
Created by potrace 1.14, written by Peter Selinger 2001-2017
</metadata>
<g transform="translate(0.000000,81.000000) scale(0.100000,-0.100000)"
fill="#000000" stroke="none">
<path d="M240 735 c0 -8 -9 -15 -20 -15 -13 0 -20 -7 -20 -20 0 -11 -7 -20
-15 -20 -8 0 -15 -7 -15 -15 0 -8 -7 -15 -15 -15 -8 0 -15 7 -15 15 0 10 -11
15 -35 15 -33 0 -35 -2 -35 -35 0 -24 5 -35 15 -35 8 0 15 -7 15 -15 0 -8 -7
-15 -15 -15 -8 0 -15 -9 -15 -20 0 -13 -7 -20 -20 -20 -16 0 -20 -7 -20 -30 0
-20 -5 -30 -15 -30 -12 0 -15 -16 -15 -85 0 -69 3 -85 15 -85 8 0 15 -7 15
-15 0 -8 9 -15 20 -15 13 0 20 -7 20 -20 0 -11 7 -20 15 -20 8 0 15 9 15 20 0
13 7 20 20 20 18 0 20 7 20 70 0 56 3 70 15 70 10 0 15 10 15 30 0 20 5 30 15
30 8 0 15 -7 15 -15 0 -10 10 -15 30 -15 20 0 30 -5 30 -15 0 -8 9 -15 20 -15
13 0 20 -7 20 -20 0 -11 7 -20 15 -20 29 0 14 -40 -30 -81 -25 -23 -45 -47
-45 -53 0 -6 38 -49 85 -96 l85 -85 85 85 c47 47 85 89 85 95 0 15 -73 85 -88
85 -7 0 -12 11 -12 25 0 16 6 25 15 25 8 0 15 9 15 20 0 13 7 20 20 20 11 0
20 7 20 15 0 10 10 15 30 15 20 0 30 5 30 15 0 8 7 15 15 15 10 0 15 -10 15
-30 0 -20 5 -30 15 -30 12 0 15 -14 15 -70 0 -63 2 -70 20 -70 13 0 20 -7 20
-20 0 -11 7 -20 15 -20 8 0 15 9 15 20 0 13 7 20 20 20 11 0 20 7 20 15 0 8 7
15 15 15 12 0 15 16 15 85 0 69 -3 85 -15 85 -10 0 -15 10 -15 30 0 23 -4 30
-20 30 -13 0 -20 7 -20 20 0 11 -7 20 -15 20 -8 0 -15 7 -15 15 0 8 7 15 15
15 10 0 15 11 15 35 0 33 -2 35 -35 35 -24 0 -35 -5 -35 -15 0 -8 -7 -15 -15
-15 -8 0 -15 7 -15 15 0 8 -7 15 -15 15 -8 0 -15 9 -15 20 0 13 -7 20 -20 20
-11 0 -20 7 -20 15 0 10 -10 15 -30 15 -20 0 -30 -5 -30 -15 0 -8 -7 -15 -15
-15 -8 0 -15 -9 -15 -20 0 -11 -7 -20 -15 -20 -10 0 -15 -11 -15 -35 0 -24 5
-35 15 -35 8 0 15 -7 15 -15 0 -10 11 -15 35 -15 28 0 35 -4 35 -20 0 -13 -7
-20 -20 -20 -16 0 -20 -7 -20 -30 0 -20 -5 -30 -15 -30 -8 0 -15 -7 -15 -15 0
-8 -7 -15 -15 -15 -8 0 -15 -7 -15 -15 0 -8 -9 -15 -19 -15 -12 0 -21 -8 -24
-22 l-4 -23 -2 23 c-1 15 -7 22 -21 22 -11 0 -20 7 -20 15 0 8 -7 15 -15 15
-8 0 -15 7 -15 15 0 8 -7 15 -15 15 -10 0 -15 10 -15 30 0 23 -4 30 -20 30
-13 0 -20 7 -20 20 0 16 7 20 35 20 24 0 35 5 35 15 0 8 7 15 15 15 10 0 15
11 15 35 0 24 -5 35 -15 35 -8 0 -15 9 -15 20 0 11 -7 20 -15 20 -8 0 -15 7
-15 15 0 10 -10 15 -30 15 -20 0 -30 -5 -30 -15z"/>
</g>
</svg>
